<?xml version="1.0" standalone="no"?>
<!DOCTYPE svg PUBLIC "-//W3C//DTD SVG 20010904//EN"
 "http://www.w3.org/TR/2001/REC-SVG-20010904/DTD/svg10.dtd">
<svg version="1.0" xmlns="http://www.w3.org/2000/svg"
 width="260.000000pt" height="260.000000pt" viewBox="0 0 260.000000 260.000000"
 preserveAspectRatio="xMidYMid meet">
<metadata>
Created by potrace 1.11, written by Peter Selinger 2001-2013
</metadata>
<g transform="translate(0.000000,260.000000) scale(0.100000,-0.100000)"
fill="#000000" stroke="none">
<path d="M0 1300 l0 -1300 1300 0 1300 0 0 1300 0 1300 -1300 0 -1300 0 0
-1300z m1276 912 c79 -48 94 -61 94 -81 -1 -24 -53 -95 -73 -99 -10 -2 -41 11
-70 30 l-52 33 -371 0 -371 0 -36 -28 c-32 -24 -37 -34 -37 -68 0 -30 6 -46
26 -64 l27 -25 400 0 401 0 68 -41 c38 -23 75 -51 83 -63 11 -15 15 -51 15
-138 l0 -118 410 0 c395 0 410 -1 420 -19 10 -19 11 -19 35 5 19 19 34 24 74
24 74 0 81 -11 81 -134 0 -77 -4 -107 -14 -115 -9 -7 -40 -11 -78 -9 l-63 3
-5 45 -5 45 -385 3 c-273 2 -393 -1 -413 -9 -58 -24 -57 -19 -57 -437 0 -255
4 -390 11 -404 24 -44 57 -48 419 -48 386 0 397 2 427 67 18 37 20 38 76 41
71 4 87 -7 87 -60 0 -53 -9 -66 -90 -137 l-71 -61 -429 0 -429 0 -71 62 c-40
34 -76 72 -81 85 -5 13 -9 144 -9 291 l0 267 -417 -3 -418 -2 -87 51 c-70 40
-88 55 -88 73 0 29 55 106 76 106 9 0 44 -17 78 -37 l61 -38 361 0 361 0 36
28 c31 23 37 34 37 65 0 42 -4 49 -44 80 -28 22 -32 22 -406 22 l-378 0 -61
41 c-34 23 -78 56 -97 74 l-34 32 0 108 0 107 33 32 32 33 -32 30 -33 30 0
102 c0 56 4 111 10 121 5 10 46 46 91 79 l80 61 417 0 417 0 61 -38z"/>
<path d="M443 1753 c-40 -8 -83 -57 -83 -95 0 -37 12 -56 50 -82 22 -14 67
-16 380 -16 313 0 358 2 380 16 41 28 50 45 50 99 0 82 11 80 -400 81 -195 1
-365 0 -377 -3z"/>
</g>
</svg>
